<?xml version="1.0" encoding="UTF-8"?>
<svg xmlns="http://www.w3.org/2000/svg"
     xmlns:xlink="http://www.w3.org/1999/xlink"
     xmlns:gadfly="http://www.gadflyjl.org/ns"
     version="1.2"
     width="152.4mm" height="101.6mm" viewBox="0 0 152.4 101.6"
     stroke="none"
     fill="#000000"
     stroke-width="0.3"
     font-size="3.88"
>
<defs>
  <marker id="arrow" markerWidth="15" markerHeight="7" refX="5" refY="3.5" orient="auto" markerUnits="strokeWidth">
    <path d="M0,0 L15,3.5 L0,7 z" stroke="context-stroke" fill="context-stroke"/>
  </marker>
</defs>
<g class="plotroot xscalable yscalable" id="img-5656bb2d-1">
  <g font-size="3.88" font-family="'PT Sans','Helvetica Neue','Helvetica',sans-serif" fill="#564A55" stroke="#000000" stroke-opacity="0.000" id="img-5656bb2d-2">
    <g transform="translate(73.52,89.99)">
      <g class="primitive">
        <text text-anchor="middle" dy="0.6em">delay</text>
      </g>
    </g>
  </g>
  <g class="guide xlabels" font-size="2.82" font-family="'PT Sans Caption','Helvetica Neue','Helvetica',sans-serif" fill="#6C606B" id="img-5656bb2d-3">
    <g transform="translate(21.63,83.32)">
      <g class="primitive">
        <text text-anchor="middle" dy="0.6em">0</text>
      </g>
    </g>
    <g transform="translate(47.57,83.32)">
      <g class="primitive">
        <text text-anchor="middle" dy="0.6em">1</text>
      </g>
    </g>
    <g transform="translate(73.52,83.32)">
      <g class="primitive">
        <text text-anchor="middle" dy="0.6em">2</text>
      </g>
    </g>
    <g transform="translate(99.46,83.32)">
      <g class="primitive">
        <text text-anchor="middle" dy="0.6em">3</text>
      </g>
    </g>
    <g transform="translate(125.4,83.32)">
      <g class="primitive">
        <text text-anchor="middle" dy="0.6em">4</text>
      </g>
    </g>
  </g>
  <g class="guide colorkey" id="img-5656bb2d-4">
    <g fill="#4C404B" font-size="2.82" font-family="'PT Sans','Helvetica Neue','Helvetica',sans-serif" id="img-5656bb2d-5">
      <g transform="translate(132.03,37.15)" id="img-5656bb2d-6">
        <g class="primitive">
          <text dy="0.35em">disp-p</text>
        </g>
      </g>
      <g transform="translate(132.03,40.77)" id="img-5656bb2d-7">
        <g class="primitive">
          <text dy="0.35em">disp-p/boom</text>
        </g>
      </g>
      <g transform="translate(132.03,44.4)" id="img-5656bb2d-8">
        <g class="primitive">
          <text dy="0.35em">disp-td</text>
        </g>
      </g>
      <g transform="translate(132.03,48.03)" id="img-5656bb2d-9">
        <g class="primitive">
          <text dy="0.35em">kad-td</text>
        </g>
      </g>
      <g transform="translate(132.03,51.65)" id="img-5656bb2d-10">
        <g class="primitive">
          <text dy="0.35em">myt-p</text>
        </g>
      </g>
      <g transform="translate(132.03,55.28)" id="img-5656bb2d-11">
        <g class="primitive">
          <text dy="0.35em">myt-p/boom</text>
        </g>
      </g>
    </g>
    <g stroke-width="0.3" id="img-5656bb2d-12">
      <g stroke="#FFFFFF" fill-opacity="1" fill="#FF6765" id="img-5656bb2d-13">
        <g transform="translate(129.21,55.05)" id="img-5656bb2d-14">
          <path d="M-0.78,0.68 L0.78,0.68 0,-0.67 0,-0.67  z" class="primitive"/>
        </g>
      </g>
      <g stroke="#FFFFFF" fill-opacity="1" fill="#BEA9FF" id="img-5656bb2d-15">
        <g transform="translate(129.21,51.65)" id="img-5656bb2d-16">
          <path d="M0,-0.4 L0.4,-0.8 0.8,-0.4 0.4,0 0.8,0.4 0.4,0.8 0,0.4 -0.4,0.8 -0.8,0.4 -0.4,0 -0.8,-0.4 -0.4,-0.8  z" class="primitive"/>
        </g>
      </g>
      <g stroke="#FFFFFF" fill-opacity="1" fill="#00B78D" id="img-5656bb2d-17">
        <g transform="translate(129.21,48.03)" id="img-5656bb2d-18">
          <path d="M-0.9,-0.36 L-0.9,0.36 -0.36,0.36 -0.36,0.9 0.36,0.9 0.36,0.36 0.9,0.36 0.9,-0.36 0.36,-0.36 0.36,-0.9 -0.36,-0.9 -0.36,-0.36  z" class="primitive"/>
        </g>
      </g>
      <g stroke="#FFFFFF" fill-opacity="1" fill="#FF6DAE" id="img-5656bb2d-19">
        <g transform="translate(129.21,44.4)" id="img-5656bb2d-20">
          <path d="M0,-0.9 L0.9,0 0,0.9 -0.9,0  z" class="primitive"/>
        </g>
      </g>
      <g stroke="#FFFFFF" fill-opacity="1" fill="#D4CA3A" id="img-5656bb2d-21">
        <g transform="translate(129.21,40.77)" id="img-5656bb2d-22">
          <path d="M-0.64,-0.64 L-0.64,0.64 0.64,0.64 0.64,-0.64  z" class="primitive"/>
        </g>
      </g>
      <g stroke="#FFFFFF" fill-opacity="1" fill="#00BFFF" id="img-5656bb2d-23">
        <g transform="translate(129.21,37.15)" id="img-5656bb2d-24">
          <circle cx="0" cy="0" r="0.9" class="primitive"/>
        </g>
      </g>
    </g>
    <g fill="#362A35" font-size="3.88" font-family="'PT Sans','Helvetica Neue','Helvetica',sans-serif" stroke="#000000" stroke-opacity="0.000" id="img-5656bb2d-25">
      <g transform="translate(128.4,33.83)" id="img-5656bb2d-26">
        <g class="primitive">
          <text dy="-0em">type</text>
        </g>
      </g>
    </g>
  </g>
  <g clip-path="url(#img-5656bb2d-27)">
    <g id="img-5656bb2d-28">
      <g pointer-events="visible" stroke-width="0.3" fill="#000000" fill-opacity="0.000" stroke="#000000" stroke-opacity="0.000" class="guide background" id="img-5656bb2d-29">
        <g transform="translate(73.52,43.66)" id="img-5656bb2d-30">
          <path d="M-53.88,-38.66 L53.88,-38.66 53.88,38.66 -53.88,38.66  z" class="primitive"/>
        </g>
      </g>
      <g class="guide ygridlines xfixed" stroke-dasharray="0.5,0.5" stroke-width="0.2" stroke="#D0D0E0" id="img-5656bb2d-31">
        <g transform="translate(73.52,80.32)" id="img-5656bb2d-32">
          <path fill="none" d="M-53.88,0 L53.88,0 " class="primitive"/>
        </g>
        <g transform="translate(73.52,61.99)" id="img-5656bb2d-33">
          <path fill="none" d="M-53.88,0 L53.88,0 " class="primitive"/>
        </g>
        <g transform="translate(73.52,43.66)" id="img-5656bb2d-34">
          <path fill="none" d="M-53.88,0 L53.88,0 " class="primitive"/>
        </g>
        <g transform="translate(73.52,25.33)" id="img-5656bb2d-35">
          <path fill="none" d="M-53.88,0 L53.88,0 " class="primitive"/>
        </g>
        <g transform="translate(73.52,7)" id="img-5656bb2d-36">
          <path fill="none" d="M-53.88,0 L53.88,0 " class="primitive"/>
        </g>
      </g>
      <g class="guide xgridlines yfixed" stroke-dasharray="0.5,0.5" stroke-width="0.2" stroke="#D0D0E0" id="img-5656bb2d-37">
        <g transform="translate(21.63,43.66)" id="img-5656bb2d-38">
          <path fill="none" d="M0,-38.66 L0,38.66 " class="primitive"/>
        </g>
        <g transform="translate(47.57,43.66)" id="img-5656bb2d-39">
          <path fill="none" d="M0,-38.66 L0,38.66 " class="primitive"/>
        </g>
        <g transform="translate(73.52,43.66)" id="img-5656bb2d-40">
          <path fill="none" d="M0,-38.66 L0,38.66 " class="primitive"/>
        </g>
        <g transform="translate(99.46,43.66)" id="img-5656bb2d-41">
          <path fill="none" d="M0,-38.66 L0,38.66 " class="primitive"/>
        </g>
        <g transform="translate(125.4,43.66)" id="img-5656bb2d-42">
          <path fill="none" d="M0,-38.66 L0,38.66 " class="primitive"/>
        </g>
      </g>
      <g class="plotpanel" id="img-5656bb2d-43">
        <metadata>
          <boundingbox value="19.63166666666666mm 5.0mm 107.76833333333332mm 77.315mm"/>
          <unitbox value="-0.0770948105555645 102.72795471595171 4.154189621111129 -105.45590943190344"/>
        </metadata>
        <g stroke-width="0.3" fill="#000000" fill-opacity="0.000" class="geometry" id="img-5656bb2d-44">
          <g class="color_RGB{N0f8}(1.0,0.0,0.0)" stroke-dasharray="none" stroke="#FF0000" id="img-5656bb2d-45">
            <g transform="translate(73.52,57.48)" id="img-5656bb2d-46">
              <path fill="none" d="M-51.88,-36.89 L-51.47,-36.89 -51.05,-36.89 -50.63,-36.89 -50.22,-35.72 -49.8,-35.72 -49.38,-35.72 -48.97,-34.55 -48.55,-34.55 -48.13,-34.55 -47.72,-33.39 -47.3,-33.39 -46.88,-33.39 -46.47,-32.23 -46.05,-32.23 -45.63,-32.23 -45.22,-31.08 -44.8,-31.08 -44.38,-31.08 -43.97,-29.93 -43.55,-29.93 -43.13,-29.93 -42.72,-28.8 -42.3,-28.8 -41.88,-28.8 -41.47,-27.67 -41.05,-27.67 -40.63,-27.67 -40.22,-27.67 -39.8,-26.54 -39.38,-26.54 -38.97,-26.54 -38.55,-25.43 -38.13,-25.43 -37.71,-25.43 -37.3,-24.32 -36.88,-24.32 -36.46,-24.32 -36.05,-23.21 -35.63,-23.21 -35.21,-23.21 -34.8,-22.12 -34.38,-22.12 -33.96,-22.12 -33.55,-21.03 -33.13,-21.03 -32.71,-21.03 -32.3,-19.95 -31.88,-19.95 -31.46,-19.95 -31.05,-18.88 -30.63,-18.88 -30.21,-18.88 -29.8,-17.82 -29.38,-17.82 -28.96,-17.82 -28.55,-17.82 -28.13,-16.76 -27.71,-16.76 -27.3,-16.76 -26.88,-15.71 -26.46,-15.71 -26.05,-15.71 -25.63,-14.67 -25.21,-14.67 -24.8,-14.67 -24.38,-13.64 -23.96,-13.64 -23.55,-13.64 -23.13,-12.62 -22.71,-12.62 -22.3,-12.62 -21.88,-11.61 -21.46,-11.61 -21.05,-11.61 -20.63,-10.61 -20.21,-10.61 -19.8,-10.61 -19.38,-9.61 -18.96,-9.61 -18.54,-9.61 -18.13,-8.63 -17.71,-8.63 -17.29,-8.63 -16.88,-8.63 -16.46,-7.66 -16.04,-7.66 -15.63,-7.66 -15.21,-6.69 -14.79,-6.69 -14.38,-6.69 -13.96,-5.74 -13.54,-5.74 -13.13,-5.74 -12.71,-4.8 -12.29,-4.8 -11.88,-4.8 -11.46,-3.86 -11.04,-3.86 -10.63,-3.86 -10.21,-2.94 -9.79,-2.94 -9.38,-2.94 -8.96,-2.03 -8.54,-2.03 -8.13,-2.03 -7.71,-1.13 -7.29,-1.13 -6.88,-1.13 -6.46,-0.25 -6.04,-0.25 -5.63,-0.25 -5.21,-0.25 -4.79,0.63 -4.38,0.63 -3.96,0.63 -3.54,1.49 -3.13,1.49 -2.71,1.49 -2.29,2.34 -1.88,2.34 -1.46,2.34 -1.04,3.18 -0.63,3.18 -0.21,3.18 0.21,4.01 0.63,4.01 1.04,4.01 1.46,4.82 1.88,4.82 2.29,4.82 2.71,5.62 3.13,5.62 3.54,5.62 3.96,6.41 4.38,6.41 4.79,6.41 5.21,7.18 5.63,7.18 6.04,7.18 6.46,7.18 6.88,7.94 7.29,7.94 7.71,7.94 8.13,8.68 8.54,8.68 8.96,8.68 9.38,9.41 9.79,9.41 10.21,9.41 10.63,10.12 11.04,10.12 11.46,10.12 11.88,10.82 12.29,10.82 12.71,10.82 13.13,11.5 13.54,11.5 13.96,11.5 14.38,12.17 14.79,12.17 15.21,12.17 15.63,12.82 16.04,12.82 16.46,12.82 16.88,13.45 17.29,13.45 17.71,13.45 18.13,13.45 18.54,14.07 18.96,14.07 19.38,14.07 19.8,14.67 20.21,14.67 20.63,14.67 21.05,15.25 21.46,15.25 21.88,15.25 22.3,15.81 22.71,15.81 23.13,15.81 23.55,16.36 23.96,16.36 24.38,16.36 24.8,16.88 25.21,16.88 25.63,16.88 26.05,17.39 26.46,17.39 26.88,17.39 27.3,17.88 27.71,17.88 28.13,17.88 28.55,18.35 28.96,18.35 29.38,18.35 29.8,18.35 30.21,18.79 30.63,18.79 31.05,18.79 31.46,19.22 31.88,19.22 32.3,19.22 32.71,19.62 33.13,19.62 33.55,19.62 33.96,20.01 34.38,20.01 34.8,20.01 35.21,20.37 35.63,20.37 36.05,20.37 36.46,20.71 36.88,20.71 37.3,20.71 37.71,21.02 38.13,21.02 38.55,21.02 38.97,21.31 39.38,21.31 39.8,21.31 40.22,21.58 40.63,21.58 41.05,21.58 41.47,21.58 41.88,21.83 42.3,21.83 42.72,21.83 43.13,22.05 43.55,22.05 43.97,22.05 44.38,22.24 44.8,22.24 45.22,22.24 45.63,22.41 46.05,22.41 46.47,22.41 46.88,22.55 47.3,22.55 47.72,22.55 48.13,22.66 48.55,22.66 48.97,22.66 49.38,22.75 49.8,22.75 50.22,22.75 50.63,22.81 51.05,22.81 51.47,22.81 51.88,22.81 " class="primitive"/>
            </g>
          </g>
        </g>
        <g stroke-width="0.3" fill="#000000" fill-opacity="0.000" class="geometry" id="img-5656bb2d-47">
          <g class="color_RGB{N0f8}(1.0,0.647,0.0)" stroke-dasharray="none" stroke="#FFA500" id="img-5656bb2d-48">
            <g transform="translate(73.52,60.37)" id="img-5656bb2d-49">
              <path fill="none" d="M-51.88,-35.12 L-51.47,-35.12 -51.05,-35.12 -50.63,-35.12 -50.22,-33.97 -49.8,-33.97 -49.38,-33.97 -48.97,-32.83 -48.55,-32.83 -48.13,-32.83 -47.72,-31.69 -47.3,-31.69 -46.88,-31.69 -46.47,-30.56 -46.05,-30.56 -45.63,-30.56 -45.22,-29.44 -44.8,-29.44 -44.38,-29.44 -43.97,-28.32 -43.55,-28.32 -43.13,-28.32 -42.72,-27.21 -42.3,-27.21 -41.88,-27.21 -41.47,-26.11 -41.05,-26.11 -40.63,-26.11 -40.22,-26.11 -39.8,-25.01 -39.38,-25.01 -38.97,-25.01 -38.55,-23.93 -38.13,-23.93 -37.71,-23.93 -37.3,-22.85 -36.88,-22.85 -36.46,-22.85 -36.05,-21.77 -35.63,-21.77 -35.21,-21.77 -34.8,-20.71 -34.38,-20.71 -33.96,-20.71 -33.55,-19.65 -33.13,-19.65 -32.71,-19.65 -32.3,-18.61 -31.88,-18.61 -31.46,-18.61 -31.05,-17.57 -30.63,-17.57 -30.21,-17.57 -29.8,-16.54 -29.38,-16.54 -28.96,-16.54 -28.55,-16.54 -28.13,-15.52 -27.71,-15.52 -27.3,-15.52 -26.88,-14.5 -26.46,-14.5 -26.05,-14.5 -25.63,-13.5 -25.21,-13.5 -24.8,-13.5 -24.38,-12.51 -23.96,-12.51 -23.55,-12.51 -23.13,-11.53 -22.71,-11.53 -22.3,-11.53 -21.88,-10.55 -21.46,-10.55 -21.05,-10.55 -20.63,-9.59 -20.21,-9.59 -19.8,-9.59 -19.38,-8.63 -18.96,-8.63 -18.54,-8.63 -18.13,-7.69 -17.71,-7.69 -17.29,-7.69 -16.88,-7.69 -16.46,-6.76 -16.04,-6.76 -15.63,-6.76 -15.21,-5.84 -14.79,-5.84 -14.38,-5.84 -13.96,-4.93 -13.54,-4.93 -13.13,-4.93 -12.71,-4.03 -12.29,-4.03 -11.88,-4.03 -11.46,-3.14 -11.04,-3.14 -10.63,-3.14 -10.21,-2.27 -9.79,-2.27 -9.38,-2.27 -8.96,-1.4 -8.54,-1.4 -8.13,-1.4 -7.71,-0.55 -7.29,-0.55 -6.88,-0.55 -6.46,0.29 -6.04,0.29 -5.63,0.29 -5.21,0.29 -4.79,1.11 -4.38,1.11 -3.96,1.11 -3.54,1.93 -3.13,1.93 -2.71,1.93 -2.29,2.73 -1.88,2.73 -1.46,2.73 -1.04,3.51 -0.63,3.51 -0.21,3.51 0.21,4.28 0.63,4.28 1.04,4.28 1.46,5.04 1.88,5.04 2.29,5.04 2.71,5.78 3.13,5.78 3.54,5.78 3.96,6.51 4.38,6.51 4.79,6.51 5.21,7.23 5.63,7.23 6.04,7.23 6.46,7.23 6.88,7.92 7.29,7.92 7.71,7.92 8.13,8.61 8.54,8.61 8.96,8.61 9.38,9.27 9.79,9.27 10.21,9.27 10.63,9.92 11.04,9.92 11.46,9.92 11.88,10.56 12.29,10.56 12.71,10.56 13.13,11.17 13.54,11.17 13.96,11.17 14.38,11.77 14.79,11.77 15.21,11.77 15.63,12.35 16.04,12.35 16.46,12.35 16.88,12.92 17.29,12.92 17.71,12.92 18.13,12.92 18.54,13.46 18.96,13.46 19.38,13.46 19.8,13.99 20.21,13.99 20.63,13.99 21.05,14.5 21.46,14.5 21.88,14.5 22.3,14.98 22.71,14.98 23.13,14.98 23.55,15.45 23.96,15.45 24.38,15.45 24.8,15.9 25.21,15.9 25.63,15.9 26.05,16.32 26.46,16.32 26.88,16.32 27.3,16.73 27.71,16.73 28.13,16.73 28.55,17.11 28.96,17.11 29.38,17.11 29.8,17.11 30.21,17.47 30.63,17.47 31.05,17.47 31.46,17.81 31.88,17.81 32.3,17.81 32.71,18.13 33.13,18.13 33.55,18.13 33.96,18.42 34.38,18.42 34.8,18.42 35.21,18.69 35.63,18.69 36.05,18.69 36.46,18.93 36.88,18.93 37.3,18.93 37.71,19.15 38.13,19.15 38.55,19.15 38.97,19.34 39.38,19.34 39.8,19.34 40.22,19.51 40.63,19.51 41.05,19.51 41.47,19.51 41.88,19.65 42.3,19.65 42.72,19.65 43.13,19.77 43.55,19.77 43.97,19.77 44.38,19.85 44.8,19.85 45.22,19.85 45.63,19.91 46.05,19.91 46.47,19.91 46.88,19.91 47.3,19.91 47.72,19.91 48.13,19.91 48.55,19.91 48.97,19.91 49.38,19.91 49.8,19.91 50.22,19.91 50.63,19.91 51.05,19.91 51.47,19.91 51.88,19.91 " class="primitive"/>
            </g>
          </g>
        </g>
        <g class="geometry" id="img-5656bb2d-50">
          <g stroke-width="0.3" id="img-5656bb2d-51">
            <g class="color_myt-p/boom" fill-opacity="1" stroke="#FFFFFF" fill="#FF6765" id="img-5656bb2d-52">
              <g class="marker" id="img-5656bb2d-53">
                <g transform="translate(94.27,74.22)" id="img-5656bb2d-54">
                  <path d="M-0.78,0.67 L0.78,0.67 0,-0.68 0,-0.68  z" class="primitive"/>
                </g>
              </g>
            </g>
            <g class="color_myt-p" fill-opacity="1" stroke="#FFFFFF" fill="#BEA9FF" id="img-5656bb2d-55">
              <g class="marker" id="img-5656bb2d-56">
                <g transform="translate(91.68,73.72)" id="img-5656bb2d-57">
                  <path d="M0,-0.4 L0.4,-0.8 0.8,-0.4 0.4,-0 0.8,0.4 0.4,0.8 0,0.4 -0.4,0.8 -0.8,0.4 -0.4,-0 -0.8,-0.4 -0.4,-0.8  z" class="primitive"/>
                </g>
              </g>
            </g>
            <g class="color_myt-p" fill-opacity="1" stroke="#FFFFFF" fill="#BEA9FF" id="img-5656bb2d-58">
              <g class="marker" id="img-5656bb2d-59">
                <g transform="translate(83.89,70.05)" id="img-5656bb2d-60">
                  <path d="M-0,-0.4 L0.4,-0.8 0.8,-0.4 0.4,0 0.8,0.4 0.4,0.8 -0,0.4 -0.4,0.8 -0.8,0.4 -0.4,0 -0.8,-0.4 -0.4,-0.8  z" class="primitive"/>
                </g>
              </g>
            </g>
            <g class="color_myt-p" fill-opacity="1" stroke="#FFFFFF" fill="#BEA9FF" id="img-5656bb2d-61">
              <g class="marker" id="img-5656bb2d-62">
                <g transform="translate(73.52,64.55)" id="img-5656bb2d-63">
                  <path d="M-0,-0.4 L0.4,-0.8 0.8,-0.4 0.4,0 0.8,0.4 0.4,0.8 -0,0.4 -0.4,0.8 -0.8,0.4 -0.4,0 -0.8,-0.4 -0.4,-0.8  z" class="primitive"/>
                </g>
              </g>
            </g>
            <g class="color_myt-p" fill-opacity="1" stroke="#FFFFFF" fill="#BEA9FF" id="img-5656bb2d-64">
              <g class="marker" id="img-5656bb2d-65">
                <g transform="translate(63.14,57.95)" id="img-5656bb2d-66">
                  <path d="M0,-0.4 L0.4,-0.8 0.8,-0.4 0.4,-0 0.8,0.4 0.4,0.8 0,0.4 -0.4,0.8 -0.8,0.4 -0.4,-0 -0.8,-0.4 -0.4,-0.8  z" class="primitive"/>
                </g>
              </g>
            </g>
            <g class="color_myt-p" fill-opacity="1" stroke="#FFFFFF" fill="#BEA9FF" id="img-5656bb2d-67">
              <g class="marker" id="img-5656bb2d-68">
                <g transform="translate(52.76,50.62)" id="img-5656bb2d-69">
                  <path d="M0,-0.4 L0.4,-0.8 0.8,-0.4 0.4,0 0.8,0.4 0.4,0.8 0,0.4 -0.4,0.8 -0.8,0.4 -0.4,0 -0.8,-0.4 -0.4,-0.8  z" class="primitive"/>
                </g>
              </g>
            </g>
            <g class="color_myt-p" fill-opacity="1" stroke="#FFFFFF" fill="#BEA9FF" id="img-5656bb2d-70">
              <g class="marker" id="img-5656bb2d-71">
                <g transform="translate(42.39,41.82)" id="img-5656bb2d-72">
                  <path d="M0,-0.4 L0.4,-0.8 0.8,-0.4 0.4,0 0.8,0.4 0.4,0.8 0,0.4 -0.4,0.8 -0.8,0.4 -0.4,0 -0.8,-0.4 -0.4,-0.8  z" class="primitive"/>
                </g>
              </g>
            </g>
            <g class="color_myt-p" fill-opacity="1" stroke="#FFFFFF" fill="#BEA9FF" id="img-5656bb2d-73">
              <g class="marker" id="img-5656bb2d-74">
                <g transform="translate(32.01,33.76)" id="img-5656bb2d-75">
                  <path d="M-0,-0.4 L0.4,-0.8 0.8,-0.4 0.4,0 0.8,0.4 0.4,0.8 -0,0.4 -0.4,0.8 -0.8,0.4 -0.4,0 -0.8,-0.4 -0.4,-0.8  z" class="primitive"/>
                </g>
              </g>
            </g>
            <g class="color_myt-p" fill-opacity="1" stroke="#FFFFFF" fill="#BEA9FF" id="img-5656bb2d-76">
              <g class="marker" id="img-5656bb2d-77">
                <g transform="translate(26.82,29.36)" id="img-5656bb2d-78">
                  <path d="M0,-0.4 L0.4,-0.8 0.8,-0.4 0.4,0 0.8,0.4 0.4,0.8 0,0.4 -0.4,0.8 -0.8,0.4 -0.4,0 -0.8,-0.4 -0.4,-0.8  z" class="primitive"/>
                </g>
              </g>
            </g>
            <g class="color_myt-p" fill-opacity="1" stroke="#FFFFFF" fill="#BEA9FF" id="img-5656bb2d-79">
              <g class="marker" id="img-5656bb2d-80">
                <g transform="translate(24.23,22.4)" id="img-5656bb2d-81">
                  <path d="M0,-0.4 L0.4,-0.8 0.8,-0.4 0.4,0 0.8,0.4 0.4,0.8 0,0.4 -0.4,0.8 -0.8,0.4 -0.4,0 -0.8,-0.4 -0.4,-0.8  z" class="primitive"/>
                </g>
              </g>
            </g>
            <g class="color_kad-td" fill-opacity="1" stroke="#FFFFFF" fill="#00B78D" id="img-5656bb2d-82">
              <g class="marker" id="img-5656bb2d-83">
                <g transform="translate(109.83,77.75)" id="img-5656bb2d-84">
                  <path d="M-0.9,-0.36 L-0.9,0.36 -0.36,0.36 -0.36,0.9 0.36,0.9 0.36,0.36 0.9,0.36 0.9,-0.36 0.36,-0.36 0.36,-0.9 -0.36,-0.9 -0.36,-0.36  z" class="primitive"/>
                </g>
              </g>
            </g>
            <g class="color_kad-td" fill-opacity="1" stroke="#FFFFFF" fill="#00B78D" id="img-5656bb2d-85">
              <g class="marker" id="img-5656bb2d-86">
                <g transform="translate(107.24,77.75)" id="img-5656bb2d-87">
                  <path d="M-0.9,-0.36 L-0.9,0.36 -0.36,0.36 -0.36,0.9 0.36,0.9 0.36,0.36 0.9,0.36 0.9,-0.36 0.36,-0.36 0.36,-0.9 -0.36,-0.9 -0.36,-0.36  z" class="primitive"/>
                </g>
              </g>
            </g>
            <g class="color_kad-td" fill-opacity="1" stroke="#FFFFFF" fill="#00B78D" id="img-5656bb2d-88">
              <g class="marker" id="img-5656bb2d-89">
                <g transform="translate(104.65,76.28)" id="img-5656bb2d-90">
                  <path d="M-0.9,-0.36 L-0.9,0.36 -0.36,0.36 -0.36,0.9 0.36,0.9 0.36,0.36 0.9,0.36 0.9,-0.36 0.36,-0.36 0.36,-0.9 -0.36,-0.9 -0.36,-0.36  z" class="primitive"/>
                </g>
              </g>
            </g>
            <g class="color_kad-td" fill-opacity="1" stroke="#FFFFFF" fill="#00B78D" id="img-5656bb2d-91">
              <g class="marker" id="img-5656bb2d-92">
                <g transform="translate(99.46,74.45)" id="img-5656bb2d-93">
                  <path d="M-0.9,-0.36 L-0.9,0.36 -0.36,0.36 -0.36,0.9 0.36,0.9 0.36,0.36 0.9,0.36 0.9,-0.36 0.36,-0.36 0.36,-0.9 -0.36,-0.9 -0.36,-0.36  z" class="primitive"/>
                </g>
              </g>
            </g>
            <g class="color_kad-td" fill-opacity="1" stroke="#FFFFFF" fill="#00B78D" id="img-5656bb2d-94">
              <g class="marker" id="img-5656bb2d-95">
                <g transform="translate(89.08,69.68)" id="img-5656bb2d-96">
                  <path d="M-0.9,-0.36 L-0.9,0.36 -0.36,0.36 -0.36,0.9 0.36,0.9 0.36,0.36 0.9,0.36 0.9,-0.36 0.36,-0.36 0.36,-0.9 -0.36,-0.9 -0.36,-0.36  z" class="primitive"/>
                </g>
              </g>
            </g>
            <g class="color_kad-td" fill-opacity="1" stroke="#FFFFFF" fill="#00B78D" id="img-5656bb2d-97">
              <g class="marker" id="img-5656bb2d-98">
                <g transform="translate(78.7,64.19)" id="img-5656bb2d-99">
                  <path d="M-0.9,-0.36 L-0.9,0.36 -0.36,0.36 -0.36,0.9 0.36,0.9 0.36,0.36 0.9,0.36 0.9,-0.36 0.36,-0.36 0.36,-0.9 -0.36,-0.9 -0.36,-0.36  z" class="primitive"/>
                </g>
              </g>
            </g>
            <g class="color_kad-td" fill-opacity="1" stroke="#FFFFFF" fill="#00B78D" id="img-5656bb2d-100">
              <g class="marker" id="img-5656bb2d-101">
                <g transform="translate(73.52,61.25)" id="img-5656bb2d-102">
                  <path d="M-0.9,-0.36 L-0.9,0.36 -0.36,0.36 -0.36,0.9 0.36,0.9 0.36,0.36 0.9,0.36 0.9,-0.36 0.36,-0.36 0.36,-0.9 -0.36,-0.9 -0.36,-0.36  z" class="primitive"/>
                </g>
              </g>
            </g>
            <g class="color_kad-td" fill-opacity="1" stroke="#FFFFFF" fill="#00B78D" id="img-5656bb2d-103">
              <g class="marker" id="img-5656bb2d-104">
                <g transform="translate(68.33,57.59)" id="img-5656bb2d-105">
                  <path d="M-0.9,-0.36 L-0.9,0.36 -0.36,0.36 -0.36,0.9 0.36,0.9 0.36,0.36 0.9,0.36 0.9,-0.36 0.36,-0.36 0.36,-0.9 -0.36,-0.9 -0.36,-0.36  z" class="primitive"/>
                </g>
              </g>
            </g>
            <g class="color_kad-td" fill-opacity="1" stroke="#FFFFFF" fill="#00B78D" id="img-5656bb2d-106">
              <g class="marker" id="img-5656bb2d-107">
                <g transform="translate(57.95,50.62)" id="img-5656bb2d-108">
                  <path d="M-0.9,-0.36 L-0.9,0.36 -0.36,0.36 -0.36,0.9 0.36,0.9 0.36,0.36 0.9,0.36 0.9,-0.36 0.36,-0.36 0.36,-0.9 -0.36,-0.9 -0.36,-0.36  z" class="primitive"/>
                </g>
              </g>
            </g>
            <g class="color_kad-td" fill-opacity="1" stroke="#FFFFFF" fill="#00B78D" id="img-5656bb2d-109">
              <g class="marker" id="img-5656bb2d-110">
                <g transform="translate(47.57,42.56)" id="img-5656bb2d-111">
                  <path d="M-0.9,-0.36 L-0.9,0.36 -0.36,0.36 -0.36,0.9 0.36,0.9 0.36,0.36 0.9,0.36 0.9,-0.36 0.36,-0.36 0.36,-0.9 -0.36,-0.9 -0.36,-0.36  z" class="primitive"/>
                </g>
              </g>
            </g>
            <g class="color_kad-td" fill-opacity="1" stroke="#FFFFFF" fill="#00B78D" id="img-5656bb2d-112">
              <g class="marker" id="img-5656bb2d-113">
                <g transform="translate(39.79,36.33)" id="img-5656bb2d-114">
                  <path d="M-0.9,-0.36 L-0.9,0.36 -0.36,0.36 -0.36,0.9 0.36,0.9 0.36,0.36 0.9,0.36 0.9,-0.36 0.36,-0.36 0.36,-0.9 -0.36,-0.9 -0.36,-0.36  z" class="primitive"/>
                </g>
              </g>
            </g>
            <g class="color_kad-td" fill-opacity="1" stroke="#FFFFFF" fill="#00B78D" id="img-5656bb2d-115">
              <g class="marker" id="img-5656bb2d-116">
                <g transform="translate(37.2,23.5)" id="img-5656bb2d-117">
                  <path d="M-0.9,-0.36 L-0.9,0.36 -0.36,0.36 -0.36,0.9 0.36,0.9 0.36,0.36 0.9,0.36 0.9,-0.36 0.36,-0.36 0.36,-0.9 -0.36,-0.9 -0.36,-0.36  z" class="primitive"/>
                </g>
              </g>
            </g>
            <g class="color_disp-td" fill-opacity="1" stroke="#FFFFFF" fill="#FF6DAE" id="img-5656bb2d-118">
              <g class="marker" id="img-5656bb2d-119">
                <g transform="translate(76.11,63.09)" id="img-5656bb2d-120">
                  <path d="M0,-0.9 L0.9,0 0,0.9 -0.9,0  z" class="primitive"/>
                </g>
              </g>
            </g>
            <g class="color_disp-td" fill-opacity="1" stroke="#FFFFFF" fill="#FF6DAE" id="img-5656bb2d-121">
              <g class="marker" id="img-5656bb2d-122">
                <g transform="translate(70.92,59.79)" id="img-5656bb2d-123">
                  <path d="M0,-0.9 L0.9,0 0,0.9 -0.9,0  z" class="primitive"/>
                </g>
              </g>
            </g>
            <g class="color_disp-p/boom" fill-opacity="1" stroke="#FFFFFF" fill="#D4CA3A" id="img-5656bb2d-124">
              <g class="marker" id="img-5656bb2d-125">
                <g transform="translate(102.05,75.55)" id="img-5656bb2d-126">
                  <path d="M-0.64,-0.64 L-0.64,0.64 0.64,0.64 0.64,-0.64  z" class="primitive"/>
                </g>
              </g>
            </g>
            <g class="color_disp-p" fill-opacity="1" stroke="#FFFFFF" fill="#00BFFF" id="img-5656bb2d-127">
              <g class="marker" id="img-5656bb2d-128">
                <g transform="translate(99.46,74.45)" id="img-5656bb2d-129">
                  <circle cx="0" cy="0" r="0.9" class="primitive"/>
                </g>
              </g>
            </g>
            <g class="color_disp-p" fill-opacity="1" stroke="#FFFFFF" fill="#00BFFF" id="img-5656bb2d-130">
              <g class="marker" id="img-5656bb2d-131">
                <g transform="translate(94.27,72.25)" id="img-5656bb2d-132">
                  <circle cx="0" cy="0" r="0.9" class="primitive"/>
                </g>
              </g>
            </g>
            <g class="color_disp-p" fill-opacity="1" stroke="#FFFFFF" fill="#00BFFF" id="img-5656bb2d-133">
              <g class="marker" id="img-5656bb2d-134">
                <g transform="translate(83.89,67.12)" id="img-5656bb2d-135">
                  <circle cx="0" cy="0" r="0.9" class="primitive"/>
                </g>
              </g>
            </g>
            <g class="color_disp-p" fill-opacity="1" stroke="#FFFFFF" fill="#00BFFF" id="img-5656bb2d-136">
              <g class="marker" id="img-5656bb2d-137">
                <g transform="translate(73.52,61.25)" id="img-5656bb2d-138">
                  <circle cx="0" cy="0" r="0.9" class="primitive"/>
                </g>
              </g>
            </g>
            <g class="color_disp-p" fill-opacity="1" stroke="#FFFFFF" fill="#00BFFF" id="img-5656bb2d-139">
              <g class="marker" id="img-5656bb2d-140">
                <g transform="translate(63.14,54.29)" id="img-5656bb2d-141">
                  <circle cx="0" cy="0" r="0.9" class="primitive"/>
                </g>
              </g>
            </g>
            <g class="color_disp-p" fill-opacity="1" stroke="#FFFFFF" fill="#00BFFF" id="img-5656bb2d-142">
              <g class="marker" id="img-5656bb2d-143">
                <g transform="translate(52.76,46.59)" id="img-5656bb2d-144">
                  <circle cx="0" cy="0" r="0.9" class="primitive"/>
                </g>
              </g>
            </g>
            <g class="color_disp-p" fill-opacity="1" stroke="#FFFFFF" fill="#00BFFF" id="img-5656bb2d-145">
              <g class="marker" id="img-5656bb2d-146">
                <g transform="translate(42.39,38.16)" id="img-5656bb2d-147">
                  <circle cx="0" cy="0" r="0.9" class="primitive"/>
                </g>
              </g>
            </g>
            <g class="color_disp-p" fill-opacity="1" stroke="#FFFFFF" fill="#00BFFF" id="img-5656bb2d-148">
              <g class="marker" id="img-5656bb2d-149">
                <g transform="translate(32.01,29.73)" id="img-5656bb2d-150">
                  <circle cx="0" cy="0" r="0.9" class="primitive"/>
                </g>
              </g>
            </g>
            <g class="color_disp-p" fill-opacity="1" stroke="#FFFFFF" fill="#00BFFF" id="img-5656bb2d-151">
              <g class="marker" id="img-5656bb2d-152">
                <g transform="translate(29.41,22.03)" id="img-5656bb2d-153">
                  <circle cx="0" cy="0" r="0.9" class="primitive"/>
                </g>
              </g>
            </g>
            <g class="color_disp-p" fill-opacity="1" stroke="#FFFFFF" fill="#00BFFF" id="img-5656bb2d-154">
              <g class="marker" id="img-5656bb2d-155">
                <g transform="translate(26.82,22.03)" id="img-5656bb2d-156">
                  <circle cx="0" cy="0" r="0.9" class="primitive"/>
                </g>
              </g>
            </g>
            <g class="color_disp-p" fill-opacity="1" stroke="#FFFFFF" fill="#00BFFF" id="img-5656bb2d-157">
              <g class="marker" id="img-5656bb2d-158">
                <g transform="translate(24.23,22.03)" id="img-5656bb2d-159">
                  <circle cx="0" cy="0" r="0.9" class="primitive"/>
                </g>
              </g>
            </g>
          </g>
        </g>
      </g>
    </g>
  </g>
  <g class="guide ylabels" font-size="2.82" font-family="'PT Sans Caption','Helvetica Neue','Helvetica',sans-serif" fill="#6C606B" id="img-5656bb2d-160">
    <g transform="translate(18.63,80.32)" id="img-5656bb2d-161">
      <g class="primitive">
        <text text-anchor="end" dy="0.35em">0</text>
      </g>
    </g>
    <g transform="translate(18.63,61.99)" id="img-5656bb2d-162">
      <g class="primitive">
        <text text-anchor="end" dy="0.35em">25</text>
      </g>
    </g>
    <g transform="translate(18.63,43.66)" id="img-5656bb2d-163">
      <g class="primitive">
        <text text-anchor="end" dy="0.35em">50</text>
      </g>
    </g>
    <g transform="translate(18.63,25.33)" id="img-5656bb2d-164">
      <g class="primitive">
        <text text-anchor="end" dy="0.35em">75</text>
      </g>
    </g>
    <g transform="translate(18.63,7)" id="img-5656bb2d-165">
      <g class="primitive">
        <text text-anchor="end" dy="0.35em">100</text>
      </g>
    </g>
  </g>
  <g font-size="3.88" font-family="'PT Sans','Helvetica Neue','Helvetica',sans-serif" fill="#564A55" stroke="#000000" stroke-opacity="0.000" id="img-5656bb2d-166">
    <g transform="translate(8.81,41.66)" id="img-5656bb2d-167">
      <g class="primitive">
        <text text-anchor="middle" dy="0.35em" transform="rotate(-90,0, 2)">falldistance</text>
      </g>
    </g>
  </g>
</g>
<defs>
  <clipPath id="img-5656bb2d-27">
    <path d="M19.63,5 L127.4,5 127.4,82.32 19.63,82.32 " />
  </clipPath>
</defs>
</svg>
